<svg xmlns="http://www.w3.org/2000/svg" viewBox="0 0 320 400" role="img" aria-label="Greeting flat owl mascot">
  <defs><style>.body{fill:#111827;stroke:#27272a;stroke-width:4}.panel{fill:#09090b;stroke:#34d399;stroke-width:4}.eye{fill:#fafafa}.pupil{fill:#09090b}.beak{fill:#a78bfa}.mint{fill:#34d399}.foot{fill:#f59e0b}</style></defs>
  <path class="body" d="M58 178c-36-28-44-66-24-88 34 16 56 48 56 88z"/>
  <rect class="body" x="68" y="58" width="194" height="258" rx="58"/>
  <path class="body" d="M88 70 130 98 78 112Z"/><path class="body" d="M242 70 200 98 252 112Z"/>
  <rect class="panel" x="82" y="88" width="166" height="82" rx="22" transform="rotate(-3 165 129)"/>
  <circle class="eye" cx="130" cy="128" r="20"/><circle class="eye" cx="200" cy="128" r="20"/>
  <circle class="pupil" cx="130" cy="128" r="8"/><circle class="pupil" cx="200" cy="128" r="8"/>
  <path class="beak" d="M165 160 149 136h32Z"/>
  <rect class="mint" x="116" y="232" width="92" height="10" rx="5"/>
  <path class="body" d="M240 178c32 20 36 58 16 78-24-16-36-40-36-76z"/>
  <ellipse class="foot" cx="122" cy="326" rx="18" ry="10"/><ellipse class="foot" cx="202" cy="326" rx="18" ry="10"/>
</svg>
