<svg xmlns="http://www.w3.org/2000/svg" viewBox="0 0 320 400" role="img" aria-label="Exporting image flat owl mascot">
  <defs><style>.body{fill:#111827;stroke:#27272a;stroke-width:4}.panel{fill:#09090b;stroke:#34d399;stroke-width:4}.eye{fill:#fafafa}.pupil{fill:#09090b}.beak{fill:#a78bfa}.card{fill:#f8fafc;stroke:#3f3f46;stroke-width:4}.mount{fill:#94a3b8}.sun{fill:#34d399}.line{fill:#71717a}.foot{fill:#f59e0b}</style></defs>
  <rect class="body" x="64" y="58" width="190" height="258" rx="56"/>
  <path class="body" d="M84 70 124 98 74 112Z"/><path class="body" d="M236 70 196 98 246 112Z"/>
  <rect class="panel" x="78" y="88" width="162" height="78" rx="22" transform="rotate(-2 159 127)"/>
  <circle class="eye" cx="126" cy="126" r="18"/><circle class="eye" cx="192" cy="126" r="18"/>
  <circle class="pupil" cx="126" cy="126" r="8"/><circle class="pupil" cx="192" cy="126" r="8"/>
  <path class="beak" d="M160 158 146 136h28Z"/>
  <rect class="card" x="58" y="202" width="198" height="96" rx="12"/>
  <path class="mount" d="M76 280 126 232 166 280Z"/><path class="mount" d="M132 280 184 244 232 280Z"/><circle class="sun" cx="208" cy="232" r="13"/>
  <rect class="line" x="82" y="286" width="120" height="7" rx="4"/>
  <ellipse class="foot" cx="116" cy="326" rx="17" ry="10"/><ellipse class="foot" cx="198" cy="326" rx="17" ry="10"/>
</svg>
