<svg xmlns="http://www.w3.org/2000/svg" viewBox="0 0 320 400" role="img" aria-label="Reading subtitles flat owl mascot">
  <defs><style>.body{fill:#111827;stroke:#27272a;stroke-width:4}.panel{fill:#09090b;stroke:#34d399;stroke-width:4}.eye{fill:#fafafa}.pupil{fill:#09090b}.beak{fill:#a78bfa}.card{fill:#18181b;stroke:#3f3f46;stroke-width:4}.line{fill:#fafafa}.dash{fill:#71717a}.foot{fill:#f59e0b}</style></defs>
  <rect class="body" x="70" y="58" width="190" height="250" rx="56"/>
  <path class="body" d="M90 70 130 98 78 112Z"/><path class="body" d="M240 70 200 98 252 112Z"/>
  <rect class="panel" x="84" y="88" width="162" height="78" rx="22" transform="rotate(2 165 127)"/>
  <circle class="eye" cx="132" cy="126" r="19"/><circle class="eye" cx="198" cy="126" r="19"/>
  <circle class="pupil" cx="138" cy="132" r="8"/><circle class="pupil" cx="204" cy="132" r="8"/>
  <path class="beak" d="M165 158 150 136h30Z"/>
  <rect class="card" x="54" y="202" width="212" height="74" rx="12" transform="rotate(5 160 239)"/>
  <rect class="line" x="86" y="224" width="92" height="8" rx="4"/><rect class="line" x="96" y="244" width="124" height="8" rx="4"/>
  <rect class="dash" x="70" y="260" width="36" height="6" rx="3"/><rect class="dash" x="194" y="260" width="36" height="6" rx="3"/>
  <ellipse class="foot" cx="126" cy="318" rx="17" ry="10"/><ellipse class="foot" cx="204" cy="318" rx="17" ry="10"/>
</svg>
