<svg xmlns="http://www.w3.org/2000/svg" viewBox="0 0 320 400" role="img" aria-label="Celebrating flat owl mascot">
  <defs><style>.body{fill:#111827;stroke:#27272a;stroke-width:4}.panel{fill:#09090b;stroke:#34d399;stroke-width:4}.eye{fill:none;stroke:#fafafa;stroke-width:8;stroke-linecap:round}.beak{fill:#a78bfa}.mint{fill:#34d399}.violet{fill:#a78bfa}.foot{fill:#f59e0b}</style></defs>
  <rect class="body" x="68" y="82" width="184" height="238" rx="56"/>
  <path class="body" d="M88 94 126 118 78 130Z"/><path class="body" d="M234 94 196 118 244 130Z"/>
  <path class="body" d="M72 190c-40 0-58-34-50-64 34 6 58 28 70 58z"/><path class="body" d="M248 190c40 0 58-34 50-64-34 6-58 28-70 58z"/>
  <rect class="panel" x="82" y="110" width="156" height="76" rx="22" transform="rotate(3 160 148)"/>
  <path class="eye" d="M122 144q12 16 24 0"/><path class="eye" d="M176 144q12 16 24 0"/>
  <path class="beak" d="M160 174 144 150h32Z"/>
  <rect class="mint" x="70" y="46" width="14" height="24" rx="3" transform="rotate(-35 77 58)"/><rect class="violet" x="230" y="42" width="14" height="24" rx="3" transform="rotate(28 237 54)"/><rect class="mint" x="270" y="92" width="12" height="22" rx="3" transform="rotate(38 276 103)"/><rect class="violet" x="42" y="112" width="12" height="22" rx="3" transform="rotate(24 48 123)"/>
  <ellipse class="foot" cx="118" cy="334" rx="18" ry="10" transform="rotate(-16 118 334)"/><ellipse class="foot" cx="202" cy="334" rx="18" ry="10" transform="rotate(16 202 334)"/>
</svg>
