<svg xmlns="http://www.w3.org/2000/svg" viewBox="0 0 320 400" role="img" aria-label="Summarizing flat owl mascot">
  <defs><style>.body{fill:#111827;stroke:#27272a;stroke-width:4}.panel{fill:#09090b;stroke:#34d399;stroke-width:4}.eye{fill:#fafafa}.pupil{fill:#09090b}.beak{fill:#a78bfa}.mint{fill:#34d399}.line{fill:#71717a}.foot{fill:#f59e0b}</style></defs>
  <rect class="body" x="54" y="62" width="176" height="252" rx="54"/>
  <path class="body" d="M72 74 110 100 62 112Z"/><path class="body" d="M214 74 176 100 224 112Z"/>
  <rect class="panel" x="68" y="90" width="148" height="76" rx="21" transform="rotate(-2 142 128)"/>
  <circle class="eye" cx="112" cy="126" r="18"/><circle class="eye" cx="172" cy="126" r="18"/>
  <circle class="pupil" cx="118" cy="126" r="8"/><circle class="pupil" cx="178" cy="126" r="8"/>
  <path class="beak" d="M144 158 130 136h28Z"/>
  <path class="body" d="M218 204c28-10 42 18 32 42-22 0-38-14-48-34z"/>
  <rect class="mint" x="240" y="112" width="52" height="10" rx="5"/><rect class="line" x="240" y="146" width="62" height="9" rx="5"/><rect class="line" x="240" y="178" width="44" height="9" rx="5"/>
  <ellipse class="foot" cx="102" cy="324" rx="17" ry="10"/><ellipse class="foot" cx="178" cy="324" rx="17" ry="10"/>
</svg>
