<svg xmlns="http://www.w3.org/2000/svg" viewBox="0 0 320 400" role="img" aria-label="Thinking flat owl mascot">
  <defs><style>.body{fill:#111827;stroke:#27272a;stroke-width:4}.panel{fill:#09090b;stroke:#34d399;stroke-width:4}.eye{fill:#fafafa}.pupil{fill:#09090b}.beak{fill:#a78bfa}.dot{fill:#a78bfa}.foot{fill:#f59e0b}</style></defs>
  <rect class="body" x="70" y="76" width="184" height="246" rx="56"/>
  <path class="body" d="M90 88 128 112 80 124Z"/><path class="body" d="M236 88 198 112 246 124Z"/>
  <rect class="panel" x="84" y="104" width="158" height="76" rx="22" transform="rotate(-3 163 142)"/>
  <circle class="eye" cx="130" cy="142" r="18"/><circle class="eye" cx="196" cy="142" r="18"/>
  <circle class="pupil" cx="138" cy="136" r="8"/><circle class="pupil" cx="204" cy="136" r="8"/>
  <path class="beak" d="M164 174 150 152h28Z"/>
  <path class="body" d="M214 220c24 18 22 48 2 62-18-12-24-34-18-58z"/>
  <circle class="dot" cx="242" cy="46" r="8"/><circle class="dot" cx="264" cy="70" r="6"/><circle class="dot" cx="280" cy="94" r="4"/>
  <ellipse class="foot" cx="122" cy="332" rx="17" ry="10"/><ellipse class="foot" cx="200" cy="332" rx="17" ry="10"/>
</svg>
